<svg viewBox="0 0 2062 2860" fill="none" xmlns="http://www.w3.org/2000/svg">
<rect x="0.5" y="0.5" width="2061" height="2859" stroke="black"/>
<path d="M896.037 712C883.575 711.993 871.391 715.711 861.026 722.684C850.661 729.657 842.58 739.571 837.806 751.174C833.032 762.776 831.779 775.545 834.206 787.866C836.633 800.186 842.63 811.504 851.439 820.388C860.249 829.273 871.474 835.324 883.696 837.777C895.918 840.23 908.587 838.975 920.101 834.17C931.614 829.365 941.456 821.226 948.38 810.783C955.304 800.339 959 788.061 959 775.5C959.005 767.163 957.38 758.906 954.218 751.202C951.056 743.498 946.419 736.498 940.572 730.601C934.724 724.704 927.782 720.026 920.14 716.834C912.499 713.643 904.308 712 896.037 712ZM896.037 805.878C890.147 805.885 884.388 804.131 879.487 800.839C874.587 797.546 870.765 792.862 868.506 787.38C866.247 781.897 865.653 775.863 866.797 770.04C867.942 764.217 870.774 758.866 874.936 754.666C879.098 750.466 884.403 747.604 890.179 746.444C895.954 745.283 901.942 745.875 907.384 748.145C912.826 750.415 917.478 754.261 920.751 759.196C924.024 764.132 925.77 769.935 925.77 775.871C925.771 779.824 924.996 783.738 923.49 787.388C921.985 791.039 919.779 794.353 916.999 797.142C914.219 799.93 910.92 802.137 907.291 803.636C903.662 805.136 899.775 805.897 895.853 805.878H896.037Z" fill="#1D1D1B"/>
<path d="M954.5 732C964.165 732 972 724.389 972 715C972 705.611 964.165 698 954.5 698C944.835 698 937 705.611 937 715C937 724.389 944.835 732 954.5 732Z" fill="#1D1D1B"/>
<path d="M906.983 839.911C902.768 840.28 898.528 839.567 894.678 837.842C890.857 835.549 888.119 831.86 887.066 827.585C886.013 823.309 886.731 818.798 889.062 815.042C891.754 811.314 895.779 808.721 900.332 807.781L904.507 807.092C914.089 806.524 923.642 808.604 932.083 813.096C940.523 817.589 947.515 824.314 952.265 832.51C957.016 840.705 959.335 850.044 958.961 859.469C958.587 868.893 955.534 878.027 950.148 885.834C944.762 893.641 937.258 899.81 928.487 903.643C919.715 907.475 910.027 908.818 900.519 907.518C891.011 906.219 882.063 902.329 874.69 896.29C867.316 890.25 861.812 882.303 858.799 873.348C858.039 871.17 857.817 868.846 858.151 866.567C858.485 864.288 859.366 862.12 860.721 860.242C861.861 858.397 863.361 856.791 865.134 855.517C866.908 854.243 868.92 853.325 871.055 852.815C873.19 852.306 875.406 852.216 877.576 852.549C879.747 852.883 881.829 853.634 883.704 854.76C886.996 857.141 889.553 860.37 891.094 864.09C892.338 867.065 894.388 869.649 897.02 871.56C899.653 873.472 902.768 874.638 906.028 874.933C909.288 875.228 912.568 874.64 915.512 873.233C918.455 871.826 920.951 869.653 922.726 866.951C924.502 864.249 925.491 861.121 925.585 857.906C925.679 854.691 924.875 851.512 923.26 848.714C921.646 845.916 919.282 843.606 916.425 842.035C913.569 840.464 910.329 839.692 907.057 839.802L906.983 839.911Z" fill="#1D1D1B" stroke="#1D1D1B" stroke-width="0.39" stroke-miterlimit="10"/>
<path d="M996.629 788.983C991.25 789.111 985.907 788.084 980.963 785.971C976.836 784.197 973.163 781.521 970.217 778.141C967.471 774.968 965.364 771.3 964.011 767.336C962.701 763.492 962.023 759.462 962.006 755.402C961.892 749.374 963.422 743.429 966.433 738.197C969.363 733.212 973.601 729.112 978.693 726.338C984.193 723.372 990.374 721.88 996.629 722.009C1001.11 721.904 1005.57 722.711 1009.72 724.381C1013.15 725.815 1016.26 727.928 1018.84 730.593C1021.12 732.987 1022.93 735.783 1024.18 738.837C1025.31 741.509 1025.91 744.372 1025.95 747.27C1026.11 749.169 1025.88 751.079 1025.28 752.889C1024.68 754.699 1023.73 756.372 1022.47 757.811C1021.32 758.952 1019.95 759.845 1018.44 760.434C1016.93 761.024 1015.32 761.297 1013.69 761.237H982.855C982.986 763.363 983.84 765.381 985.277 766.96C986.766 768.611 988.618 769.899 990.688 770.724C992.879 771.589 995.218 772.023 997.575 772.004C999.408 772.012 1001.24 771.911 1003.06 771.703C1004.42 771.519 1005.76 771.217 1007.07 770.8L1010.21 769.632C1011.16 769.218 1011.99 768.917 1012.75 768.654C1013.44 768.39 1014.17 768.213 1014.91 768.127C1016.18 768.051 1017.45 768.438 1018.46 769.218C1019.7 770.25 1020.71 771.533 1021.41 772.983C1021.97 773.825 1022.38 774.754 1022.62 775.731C1022.85 776.579 1022.96 777.452 1022.96 778.329C1022.92 779.437 1022.61 780.518 1022.05 781.481C1021.5 782.444 1020.72 783.261 1019.79 783.863C1017.07 785.71 1014.01 786.991 1010.78 787.628C1006.13 788.641 1001.38 789.096 996.629 788.983ZM982.855 750.771H1003.44C1004.51 750.862 1005.59 750.612 1006.5 750.056C1006.87 749.699 1007.16 749.262 1007.33 748.778C1007.5 748.295 1007.55 747.779 1007.49 747.27C1007.51 745.789 1007 744.349 1006.05 743.204C1005.03 741.999 1003.73 741.056 1002.27 740.456C1000.5 739.793 998.627 739.474 996.742 739.515C994.269 739.456 991.817 739.985 989.591 741.059C987.623 741.983 985.938 743.413 984.709 745.2C983.533 746.824 982.886 748.769 982.855 750.771Z" fill="#1D1D1B"/>
<path d="M1053.89 788.929C1051.4 788.905 1048.92 788.641 1046.48 788.14C1043.79 787.654 1041.16 786.899 1038.62 785.887C1036.34 785.057 1034.19 783.88 1032.25 782.395C1031.44 781.866 1030.74 781.173 1030.21 780.359C1029.67 779.545 1029.31 778.627 1029.14 777.663C1028.95 776.747 1028.95 775.802 1029.14 774.885C1029.4 773.804 1029.81 772.766 1030.36 771.805C1031.03 770.617 1031.76 769.464 1032.55 768.351C1033.09 767.508 1033.9 766.874 1034.84 766.548C1035.8 766.255 1036.82 766.255 1037.77 766.548C1039.2 766.838 1040.59 767.292 1041.92 767.9C1043.29 768.539 1044.7 769.214 1046.11 769.966C1047.54 770.703 1049.01 771.343 1050.52 771.881C1052.03 772.446 1053.62 772.738 1055.22 772.744C1057.14 772.834 1059.04 772.461 1060.78 771.655C1061.36 771.387 1061.85 770.959 1062.2 770.421C1062.54 769.883 1062.73 769.257 1062.75 768.614C1062.79 767.759 1062.49 766.923 1061.93 766.285C1061.27 765.604 1060.49 765.056 1059.63 764.671C1058.55 764.15 1057.42 763.735 1056.26 763.432L1052.11 762.343L1047.59 761.103C1045.48 760.508 1043.42 759.729 1041.44 758.775C1039.49 757.795 1037.69 756.53 1036.1 755.02C1034.49 753.462 1033.22 751.566 1032.4 749.462C1031.38 746.9 1030.9 744.15 1030.99 741.389C1030.86 737.637 1031.88 733.935 1033.92 730.8C1036.06 727.805 1039.05 725.53 1042.48 724.266C1046.84 722.655 1051.47 721.891 1056.11 722.013C1057.65 722.008 1059.18 722.095 1060.71 722.275C1062.24 722.445 1063.75 722.747 1065.23 723.177C1066.82 723.718 1068.38 724.358 1069.9 725.092C1071.39 725.74 1072.83 726.48 1074.23 727.307C1075.29 727.652 1076.22 728.301 1076.92 729.174C1077.62 730.048 1078.05 731.109 1078.16 732.227C1078.17 734.515 1077.41 736.738 1076.01 738.535C1075.26 739.78 1074.26 740.854 1073.08 741.689C1072.62 742.009 1072.1 742.228 1071.55 742.331C1071 742.435 1070.44 742.421 1069.9 742.29C1068.37 741.895 1066.89 741.328 1065.49 740.6C1063.89 739.849 1062.26 739.098 1060.52 738.422C1058.88 737.736 1057.12 737.379 1055.34 737.371C1054.07 737.335 1052.82 737.538 1051.63 737.972C1050.75 738.262 1049.97 738.795 1049.37 739.512C1048.85 740.143 1048.58 740.943 1048.59 741.765C1048.56 742.252 1048.63 742.741 1048.8 743.2C1048.96 743.659 1049.22 744.078 1049.56 744.431C1050.3 745.145 1051.18 745.695 1052.15 746.045C1053.26 746.458 1054.52 746.834 1055.85 747.21L1060.6 748.223C1062.98 748.687 1065.35 749.276 1067.67 749.988C1070.04 750.676 1072.28 751.741 1074.31 753.142C1076.34 754.567 1077.99 756.476 1079.12 758.7C1080.49 761.55 1081.12 764.7 1080.98 767.863C1081.12 770.849 1080.57 773.828 1079.35 776.552C1078.13 779.276 1076.29 781.665 1073.97 783.521C1068.04 787.503 1060.99 789.403 1053.89 788.929Z" fill="#1D1D1B"/>
<path d="M1094.32 813.93C1092.07 814.11 1089.82 813.64 1087.82 812.573C1087.22 812.178 1086.7 811.666 1086.29 811.064C1085.88 810.463 1085.59 809.784 1085.44 809.068C1085.14 807.555 1084.99 806.014 1085 804.469V731.952C1084.98 730.373 1085.11 728.796 1085.37 727.24C1085.48 726.477 1085.74 725.747 1086.15 725.097C1086.55 724.448 1087.08 723.894 1087.71 723.471C1089.68 722.349 1091.93 721.851 1094.17 722.039C1096.3 721.938 1098.42 722.337 1100.38 723.207C1101.92 723.985 1103.12 725.33 1103.74 726.977V804.319C1103.82 805.888 1103.68 807.461 1103.34 808.992C1103.2 809.759 1102.92 810.489 1102.49 811.137C1102.07 811.786 1101.53 812.338 1100.89 812.761C1098.85 813.772 1096.57 814.176 1094.32 813.93ZM1118.58 785.925C1114.78 786.007 1111.02 785.141 1107.62 783.4C1104.54 781.759 1101.87 779.397 1099.83 776.502C1097.7 773.466 1096.12 770.056 1095.16 766.439C1094.09 762.44 1093.61 758.298 1093.73 754.152C1093.72 750.049 1094.26 745.964 1095.34 742.015C1096.35 738.344 1097.95 734.877 1100.09 731.763C1102.12 728.721 1104.85 726.254 1108.04 724.587C1111.23 722.921 1114.78 722.109 1118.36 722.227C1122.08 722.236 1125.76 723.125 1129.1 724.828C1132.58 726.566 1135.71 728.956 1138.34 731.876C1141.02 734.912 1143.18 738.407 1144.7 742.204C1146.24 746.117 1147.02 750.305 1147 754.529C1147.02 758.729 1146.24 762.892 1144.7 766.778C1143.26 770.478 1141.18 773.876 1138.56 776.804C1135.94 779.601 1132.83 781.864 1129.39 783.475C1125.99 785.071 1122.31 785.906 1118.58 785.925ZM1115.91 767.607C1118.12 767.656 1120.3 767.055 1122.19 765.874C1124.05 764.706 1125.6 763.073 1126.69 761.125C1127.82 759.125 1128.4 756.844 1128.37 754.529C1128.41 752.193 1127.85 749.887 1126.72 747.857C1125.68 745.95 1124.17 744.363 1122.34 743.259C1120.43 742.115 1118.26 741.528 1116.06 741.563C1113.86 741.537 1111.7 742.137 1109.81 743.297C1107.97 744.429 1106.46 746.041 1105.42 747.97C1104.36 749.979 1103.82 752.239 1103.85 754.529C1103.84 756.787 1104.39 759.011 1105.44 760.989C1106.5 762.968 1108.03 764.636 1109.88 765.836C1111.69 766.996 1113.78 767.61 1115.91 767.607Z" fill="#1D1D1B"/>
<path d="M1161.65 786.957C1159.31 787.153 1156.96 786.675 1154.88 785.579C1154.23 785.165 1153.68 784.619 1153.26 783.977C1152.84 783.335 1152.57 782.612 1152.45 781.855C1152.15 780.296 1152 778.712 1152 777.125V732.432C1151.98 730.842 1152.15 729.255 1152.49 727.701C1152.65 726.945 1152.95 726.226 1153.39 725.587C1153.82 724.948 1154.38 724.401 1155.03 723.977C1157.11 722.911 1159.44 722.446 1161.77 722.636C1164.01 722.479 1166.25 722.902 1168.28 723.865C1169.42 724.463 1170.31 725.456 1170.78 726.659C1171.09 727.547 1171.27 728.476 1171.31 729.415L1169.77 730.197C1170.15 729.529 1170.6 728.904 1171.12 728.335C1172.01 727.284 1173.01 726.335 1174.11 725.504C1175.56 724.466 1177.15 723.626 1178.83 723.009C1180.87 722.305 1183.02 721.964 1185.19 722.003C1186.16 722.003 1187.21 722.003 1188.37 722.003C1189.64 722.117 1190.9 722.38 1192.11 722.785C1193.31 723.142 1194.45 723.655 1195.51 724.312C1196.52 724.906 1197.38 725.721 1198.02 726.696C1198.7 727.706 1199.04 728.906 1198.99 730.122C1199.09 733.276 1198.24 736.387 1196.56 739.061C1195.93 740.15 1195.03 741.062 1193.96 741.713C1192.88 742.364 1191.65 742.733 1190.39 742.785C1189.34 742.841 1188.28 742.702 1187.28 742.376C1186.77 742.189 1186.28 741.939 1185.82 741.631C1185.38 741.358 1184.92 741.121 1184.44 740.923C1183.53 740.643 1182.58 740.53 1181.63 740.588C1180.37 740.579 1179.11 740.754 1177.89 741.109C1176.73 741.453 1175.64 741.995 1174.67 742.711C1173.71 743.419 1172.91 744.336 1172.35 745.393C1171.75 746.541 1171.46 747.823 1171.49 749.117V777.311C1171.5 778.886 1171.35 780.458 1171.04 782.004C1170.9 782.732 1170.61 783.421 1170.17 784.025C1169.74 784.629 1169.18 785.134 1168.54 785.505C1166.42 786.593 1164.04 787.094 1161.65 786.957Z" fill="#1D1D1B"/>
<path d="M1231.66 788.987C1226.27 789.118 1220.92 788.091 1215.96 785.975C1211.84 784.191 1208.17 781.516 1205.22 778.144C1202.48 774.97 1200.39 771.301 1199.05 767.339C1197.71 763.5 1197.02 759.467 1197.01 755.404C1196.89 749.376 1198.42 743.43 1201.43 738.198C1204.36 733.212 1208.6 729.113 1213.69 726.339C1219.2 723.369 1225.4 721.877 1231.66 722.009C1236.13 721.904 1240.58 722.711 1244.72 724.381C1248.15 725.815 1251.25 727.928 1253.84 730.593C1256.12 732.987 1257.95 735.783 1259.21 738.838C1260.31 741.518 1260.9 744.378 1260.95 747.272C1261.11 749.168 1260.89 751.078 1260.3 752.888C1259.7 754.698 1258.76 756.372 1257.51 757.813C1256.35 758.951 1254.97 759.842 1253.45 760.431C1251.94 761.02 1250.32 761.295 1248.69 761.239H1217.74C1217.84 763.365 1218.68 765.388 1220.12 766.962C1221.62 768.606 1223.47 769.893 1225.53 770.727C1227.73 771.592 1230.06 772.026 1232.42 772.007C1234.25 772.016 1236.09 771.915 1237.91 771.706C1239.28 771.522 1240.64 771.219 1241.96 770.802L1245.06 769.635C1246 769.221 1246.87 768.92 1247.59 768.656C1248.29 768.401 1249.01 768.224 1249.75 768.129C1251.04 768.061 1252.31 768.447 1253.34 769.221C1254.57 770.262 1255.56 771.544 1256.26 772.986C1256.81 773.836 1257.23 774.762 1257.51 775.734C1257.7 776.587 1257.8 777.458 1257.81 778.332C1257.76 779.44 1257.45 780.521 1256.9 781.484C1256.34 782.448 1255.57 783.265 1254.63 783.867C1251.93 785.713 1248.88 786.994 1245.66 787.631C1241.07 788.631 1236.37 789.086 1231.66 788.987ZM1217.74 750.622H1238.29C1239.36 750.714 1240.43 750.463 1241.35 749.907C1241.72 749.55 1242 749.113 1242.17 748.629C1242.34 748.146 1242.4 747.629 1242.33 747.121C1242.35 745.639 1241.84 744.199 1240.9 743.055C1239.88 741.844 1238.58 740.901 1237.11 740.307C1235.33 739.649 1233.45 739.329 1231.55 739.365C1229.08 739.307 1226.63 739.836 1224.4 740.909C1222.43 741.834 1220.75 743.263 1219.52 745.05C1218.34 746.725 1217.72 748.727 1217.74 750.773V750.622Z" fill="#1D1D1B"/>
<path d="M1275.58 786.893C1273.26 787.072 1270.93 786.623 1268.86 785.598C1268.22 785.191 1267.68 784.662 1267.27 784.043C1266.85 783.424 1266.57 782.728 1266.45 781.999C1266.14 780.506 1265.99 778.987 1266 777.466V734.036C1266 732.558 1266.17 731.084 1266.52 729.646C1266.69 728.962 1266.99 728.316 1267.42 727.748C1267.85 727.179 1268.39 726.699 1269.01 726.335C1271.1 725.37 1273.42 724.948 1275.73 725.112C1277.78 724.989 1279.84 725.347 1281.71 726.156C1282.84 726.685 1283.72 727.593 1284.2 728.71C1284.59 729.587 1284.79 730.528 1284.8 731.481C1284.75 732.092 1284.84 732.706 1285.06 733.28L1284.28 735.655C1284.53 734.233 1285.21 732.917 1286.25 731.877C1287.49 730.467 1288.96 729.253 1290.59 728.279C1292.36 727.251 1294.26 726.441 1296.24 725.868C1298.17 725.302 1300.17 725.011 1302.18 725.004C1305.94 724.938 1309.67 725.675 1313.1 727.163C1316.29 728.6 1319.07 730.745 1321.24 733.424C1323.5 736.301 1325.2 739.558 1326.25 743.031C1327.45 746.944 1328.03 751.005 1328 755.085V777.646C1328 779.155 1327.85 780.662 1327.55 782.143C1327.44 782.879 1327.16 783.582 1326.73 784.203C1326.31 784.824 1325.75 785.349 1325.1 785.741C1320.76 787.42 1315.92 787.42 1311.58 785.741C1310.93 785.337 1310.38 784.81 1309.95 784.191C1309.52 783.572 1309.23 782.876 1309.09 782.143C1308.73 780.658 1308.55 779.136 1308.57 777.61V755.193C1308.63 753.026 1308.19 750.873 1307.27 748.896C1306.5 747.207 1305.2 745.796 1303.56 744.866C1301.6 743.897 1299.44 743.391 1297.24 743.391C1295.04 743.391 1292.88 743.897 1290.93 744.866C1289.16 745.798 1287.71 747.212 1286.77 748.932C1285.73 750.836 1285.22 752.968 1285.28 755.121V777.682C1285.28 779.191 1285.13 780.698 1284.83 782.179C1284.72 782.911 1284.45 783.611 1284.03 784.232C1283.61 784.853 1283.06 785.38 1282.42 785.777C1280.29 786.738 1277.92 787.123 1275.58 786.893Z" fill="#1D1D1B"/>
<path d="M1360.52 786.823C1356.64 786.847 1352.81 786.006 1349.31 784.364C1345.74 782.696 1342.53 780.365 1339.85 777.498C1337.11 774.501 1334.91 771.061 1333.35 767.329C1331.78 763.44 1330.98 759.289 1331 755.103C1330.99 751.061 1331.79 747.056 1333.35 743.318C1334.91 739.626 1337.14 736.243 1339.93 733.332C1342.63 730.485 1345.83 728.146 1349.38 726.43C1352.87 724.745 1356.71 723.89 1360.59 723.934C1364.35 723.847 1368.08 724.692 1371.42 726.394C1374.56 728.014 1377.27 730.326 1379.35 733.149C1381.55 736.163 1383.19 739.547 1384.16 743.135C1385.25 747.001 1385.84 750.984 1385.92 754.993C1386.03 759.082 1385.52 763.163 1384.43 767.108C1383.43 770.734 1381.8 774.162 1379.61 777.241C1377.53 780.13 1374.83 782.526 1371.69 784.253C1368.25 786.048 1364.4 786.933 1360.52 786.823ZM1363.09 768.136C1365.29 768.158 1367.44 767.559 1369.3 766.411C1371.17 765.274 1372.72 763.697 1373.82 761.822C1374.98 759.861 1375.57 757.627 1375.53 755.36C1375.57 753.091 1375 750.852 1373.89 748.862C1372.18 746.039 1369.41 743.989 1366.17 743.152C1362.94 742.314 1359.5 742.756 1356.59 744.383C1354.69 745.435 1353.13 746.986 1352.07 748.862C1350.99 750.861 1350.44 753.096 1350.47 755.36C1350.44 757.622 1351.02 759.851 1352.15 761.822C1353.26 763.718 1354.85 765.297 1356.77 766.405C1358.69 767.512 1360.87 768.109 1363.09 768.136ZM1385.51 786.97C1383.23 787.111 1380.95 786.628 1378.93 785.575C1378.19 785.084 1377.56 784.45 1377.07 783.712C1376.58 782.974 1376.25 782.147 1376.09 781.28V704.696C1376.09 703.16 1376.2 701.627 1376.43 700.107C1376.53 699.376 1376.77 698.672 1377.16 698.04C1377.55 697.408 1378.06 696.862 1378.67 696.436C1380.71 695.335 1383.04 694.85 1385.36 695.041C1387.7 694.858 1390.04 695.316 1392.12 696.362C1392.74 696.756 1393.28 697.268 1393.69 697.867C1394.11 698.465 1394.4 699.14 1394.55 699.85C1394.86 701.385 1395.01 702.948 1395 704.513V777.278C1395.01 778.831 1394.86 780.38 1394.55 781.904C1394.41 782.643 1394.13 783.348 1393.71 783.978C1393.29 784.608 1392.75 785.151 1392.12 785.575C1390.12 786.646 1387.85 787.13 1385.58 786.97H1385.51Z" fill="#1D1D1B"/>
<path d="M1433.58 788.984C1428.36 789.116 1423.17 788.088 1418.37 785.973C1414.37 784.199 1410.81 781.522 1407.96 778.142C1405.31 774.968 1403.28 771.299 1401.99 767.337C1400.69 763.498 1400.02 759.466 1400.01 755.403C1399.9 749.375 1401.38 743.429 1404.29 738.198C1407.13 733.212 1411.24 729.112 1416.17 726.339C1421.51 723.369 1427.51 721.877 1433.58 722.009C1437.91 721.904 1442.22 722.711 1446.23 724.381C1449.56 725.815 1452.56 727.928 1455.07 730.593C1457.27 732.987 1459.02 735.783 1460.23 738.838C1461.33 741.509 1461.91 744.372 1461.96 747.271C1462.25 751.1 1461.05 754.891 1458.62 757.812C1457.5 758.95 1456.16 759.841 1454.69 760.43C1453.23 761.019 1451.66 761.294 1450.08 761.238H1420.17C1420.29 763.364 1421.12 765.382 1422.51 766.961C1423.96 768.612 1425.75 769.9 1427.76 770.725C1429.88 771.59 1432.14 772.024 1434.43 772.005C1436.2 772.013 1437.98 771.912 1439.74 771.704C1441.06 771.524 1442.36 771.222 1443.63 770.8L1446.67 769.633C1447.59 769.219 1448.43 768.918 1449.13 768.655C1449.8 768.395 1450.5 768.218 1451.22 768.128C1452.46 768.052 1453.68 768.439 1454.66 769.219C1455.87 770.251 1456.84 771.534 1457.52 772.984C1458.05 773.834 1458.46 774.76 1458.73 775.732C1458.92 776.585 1459.02 777.456 1459.02 778.33C1458.98 779.438 1458.68 780.519 1458.14 781.482C1457.61 782.445 1456.85 783.262 1455.95 783.864C1453.31 785.711 1450.35 786.992 1447.22 787.629C1442.74 788.638 1438.17 789.093 1433.58 788.984ZM1420.17 750.772H1440.11C1441.15 750.863 1442.19 750.613 1443.08 750.057C1443.44 749.699 1443.71 749.262 1443.87 748.779C1444.04 748.295 1444.09 747.779 1444.03 747.271C1444.05 745.789 1443.55 744.349 1442.64 743.205C1441.66 741.991 1440.4 741.047 1438.97 740.456C1437.26 739.794 1435.45 739.474 1433.62 739.515C1431.22 739.456 1428.85 739.986 1426.69 741.059C1424.79 741.984 1423.15 743.413 1421.96 745.2C1420.82 746.825 1420.2 748.77 1420.17 750.772Z" fill="#1D1D1B"/>
<path d="M1478.24 786.957C1476 787.153 1473.75 786.675 1471.76 785.579C1471.15 785.16 1470.62 784.613 1470.22 783.971C1469.82 783.33 1469.55 782.609 1469.43 781.855C1469.14 780.296 1469 778.712 1469 777.125V732.431C1468.98 730.839 1469.15 729.25 1469.5 727.701C1469.64 726.943 1469.92 726.222 1470.33 725.582C1470.75 724.941 1471.28 724.395 1471.9 723.977C1473.89 722.911 1476.12 722.446 1478.35 722.636C1480.5 722.473 1482.65 722.897 1484.58 723.865C1485.68 724.463 1486.54 725.456 1486.98 726.658C1487.28 727.547 1487.45 728.476 1487.49 729.415L1486.02 730.197C1486.38 729.528 1486.81 728.904 1487.31 728.334C1488.16 727.274 1489.14 726.324 1490.21 725.504C1491.58 724.458 1493.09 723.618 1494.69 723.008C1496.66 722.306 1498.73 721.965 1500.81 722.003C1501.71 722.003 1502.71 722.003 1503.82 722.003C1505.04 722.117 1506.24 722.38 1507.4 722.785C1508.55 723.142 1509.65 723.655 1510.66 724.312C1511.63 724.906 1512.45 725.721 1513.06 726.696C1513.71 727.706 1514.04 728.906 1513.99 730.122C1514.08 733.276 1513.27 736.386 1511.66 739.061C1511.06 740.15 1510.2 741.062 1509.17 741.713C1508.14 742.364 1506.96 742.733 1505.75 742.785C1504.75 742.841 1503.74 742.702 1502.78 742.376C1502.29 742.189 1501.82 741.939 1501.38 741.631C1500.96 741.358 1500.52 741.121 1500.06 740.923C1499.19 740.643 1498.28 740.53 1497.37 740.588C1496.16 740.579 1494.95 740.754 1493.79 741.109C1492.68 741.453 1491.64 741.995 1490.71 742.711C1489.78 743.419 1489.03 744.336 1488.49 745.392C1487.91 746.541 1487.63 747.823 1487.66 749.117V777.311C1487.67 778.886 1487.53 780.458 1487.24 782.004C1487.1 782.732 1486.82 783.421 1486.4 784.025C1485.99 784.629 1485.45 785.134 1484.84 785.505C1482.8 786.593 1480.53 787.094 1478.24 786.957Z" fill="#1D1D1B"/>
<path d="M881.132 639.367C883.645 636.026 885.227 632.083 885.715 627.937C885.706 623.52 883.942 619.286 880.81 616.159C877.678 613.033 873.431 611.267 868.996 611.248C864.388 611.554 860.072 613.605 856.934 616.981L854.184 620.122C848.728 627.905 845.571 637.056 845.07 646.536C844.57 656.015 846.747 665.445 851.353 673.756C855.96 682.066 862.813 688.924 871.134 693.553C879.455 698.181 888.911 700.395 898.431 699.942C907.951 699.49 917.153 696.389 924.994 690.992C932.835 685.596 939 678.118 942.791 669.409C946.583 660.699 947.848 651.106 946.443 641.717C945.039 632.327 941.021 623.518 934.845 616.287C933.348 614.512 931.453 613.112 929.314 612.199C927.174 611.285 924.849 610.885 922.526 611.029C920.347 611.029 918.189 611.457 916.176 612.289C914.163 613.12 912.334 614.339 910.795 615.876C909.255 617.413 908.036 619.237 907.205 621.244C906.374 623.25 905.949 625.401 905.954 627.572C906.355 631.545 907.838 635.333 910.244 638.527C912.185 641.17 913.355 644.296 913.623 647.56C913.891 650.823 913.248 654.097 911.764 657.019C910.28 659.941 908.014 662.397 905.215 664.116C902.417 665.834 899.195 666.748 895.908 666.756C892.693 666.756 889.537 665.889 886.777 664.247C884.016 662.605 881.753 660.25 880.227 657.431C878.701 654.612 877.969 651.435 878.109 648.235C878.249 645.036 879.256 641.934 881.022 639.258L881.132 639.367Z" fill="#34A853"/>
<path d="M779.902 705.032C779.277 700.931 777.554 697.058 774.905 693.8C773.31 692.254 771.415 691.027 769.33 690.19C767.244 689.353 765.008 688.922 762.75 688.922C760.492 688.922 758.257 689.353 756.171 690.19C754.085 691.027 752.191 692.254 750.596 693.8C747.48 697.238 745.84 701.698 746.012 706.268L746.313 710.448C748.051 719.732 752.439 728.36 758.981 735.357C765.523 742.354 773.958 747.441 783.333 750.041C792.707 752.642 802.647 752.653 812.027 750.073C821.408 747.494 829.855 742.426 836.414 735.444C842.973 728.462 847.382 719.843 849.142 710.563C850.902 701.283 849.943 691.712 846.373 682.932C842.804 674.151 836.766 666.513 828.943 660.879C821.121 655.245 811.824 651.842 802.106 651.053C799.732 650.857 797.343 651.203 795.131 652.061C792.919 652.92 790.946 654.268 789.37 655.997C787.788 657.523 786.534 659.336 785.678 661.332C784.822 663.328 784.381 665.468 784.381 667.629C784.381 669.79 784.822 671.929 785.678 673.925C786.534 675.921 787.788 677.734 789.37 679.26C792.598 681.828 796.5 683.476 800.641 684.022C803.928 684.514 807.014 685.867 809.563 687.935C812.111 690.002 814.027 692.706 815.101 695.751C816.175 698.797 816.367 702.069 815.656 705.213C814.945 708.357 813.358 711.252 811.067 713.585C808.777 715.919 805.869 717.601 802.661 718.45C799.452 719.298 796.065 719.281 792.866 718.4C789.666 717.519 786.778 715.807 784.512 713.451C782.247 711.094 780.691 708.183 780.014 705.032H779.902Z" fill="#4285F4"/>
<path d="M768.387 824.077C764.934 821.531 760.872 819.922 756.602 819.407C752.035 819.417 747.659 821.224 744.433 824.431C741.207 827.639 739.395 831.985 739.395 836.516C739.711 841.212 741.826 845.609 745.307 848.806L748.545 851.608C756.574 857.181 766.016 860.409 775.801 860.926C785.586 861.443 795.321 859.229 803.901 854.534C812.481 849.839 819.562 842.851 824.342 834.365C829.122 825.878 831.408 816.232 830.94 806.521C830.473 796.81 827.272 787.424 821.699 779.428C816.127 771.431 808.407 765.145 799.415 761.282C790.423 757.419 780.52 756.134 770.829 757.573C761.139 759.012 752.049 763.118 744.591 769.424C742.746 770.904 741.28 772.796 740.312 774.945C739.343 777.093 738.9 779.438 739.019 781.789C739.019 786.277 740.816 790.582 744.014 793.755C747.213 796.929 751.551 798.712 756.075 798.712C760.175 798.292 764.081 796.768 767.371 794.304C770.066 792.372 773.241 791.207 776.555 790.934C779.868 790.662 783.193 791.292 786.172 792.757C789.152 794.221 791.671 796.465 793.459 799.246C795.247 802.027 796.236 805.24 796.319 808.538C796.402 811.835 795.576 815.093 793.931 817.959C792.285 820.825 789.881 823.191 786.98 824.802C784.078 826.412 780.789 827.206 777.466 827.098C774.143 826.99 770.913 825.984 768.124 824.189L768.387 824.077Z" fill="#E83F6F"/>
</svg>
