<svg width="24" height="24" viewBox="0 0 24 24" xmlns="http://www.w3.org/2000/svg">
<path d="M12 0.00935364C15.3141 0.00935364 18.3141 1.35257 20.4844 3.52417C22.6547 5.69578 24 8.6911 24 12.0047C24 15.3136 22.6547 18.3136 20.4844 20.4852C18.3141 22.6568 15.3141 24 12 24C8.68594 24 5.68594 22.6568 3.51563 20.4852C1.34531 18.3136 0 15.3182 0 12.0047C0 8.69578 1.34531 5.69578 3.51563 3.52417C5.68594 1.35257 8.68594 0.00935364 12 0.00935364ZM19.9547 4.04836C17.9203 2.01247 15.1078 0.758184 12 0.758184C8.89219 0.758184 6.07969 2.01715 4.04531 4.04836C2.01094 6.08424 0.75 8.89235 0.75 12C0.75 15.1076 2.01094 17.9157 4.04531 19.9516C6.07969 21.9875 8.89219 23.2418 12 23.2418C15.1078 23.2418 17.9203 21.9828 19.9547 19.9516C21.9891 17.9157 23.25 15.1076 23.25 12C23.25 8.89235 21.9891 6.08424 19.9547 4.04836Z" fill="#1C1B17"/>
<path d="M21.2766 19.6053C20.1562 20.9672 18.7453 22.0765 17.1375 22.8393C15.5813 23.5788 13.8375 23.9906 12 23.9906C10.1625 23.9906 8.41875 23.5788 6.8625 22.8393C5.24531 22.0718 3.825 20.9532 2.70469 19.5819C2.57344 19.4228 2.59687 19.1841 2.75625 19.0531C2.79844 19.0203 2.84062 18.9969 2.8875 18.9828C4.31719 18.4025 5.80313 17.9579 7.33594 17.6537C8.85 17.3588 10.4062 17.2044 12 17.2044C13.5938 17.2044 15.15 17.3588 16.6641 17.6537C18.2109 17.9579 19.7063 18.4072 21.1453 18.9969L21.0047 19.3432L21.1453 18.9969C21.3375 19.0765 21.4312 19.2917 21.3516 19.4836C21.3328 19.5304 21.3047 19.5679 21.2719 19.6006L21.2766 19.6053ZM16.8188 22.1607C18.1781 21.5148 19.3875 20.6069 20.3813 19.4977C19.1438 19.025 17.85 18.6506 16.5188 18.3931C15.0563 18.1077 13.5422 17.9579 12 17.9579C10.4531 17.9579 8.94375 18.1077 7.48125 18.3931C6.15 18.6552 4.86094 19.025 3.61875 19.4977C4.6125 20.6069 5.82188 21.5148 7.18125 22.1607C8.63906 22.8534 10.275 23.2418 12 23.2418C13.725 23.2418 15.3609 22.8534 16.8188 22.1607Z" fill="#1C1B17"/>
<path d="M20.3812 4.49766C19.3875 3.38846 18.1781 2.4805 16.8187 1.83463C15.3609 1.14197 13.725 0.75351 12 0.75351C10.275 0.75351 8.63906 1.14197 7.18125 1.83463C5.82187 2.4805 4.6125 3.38846 3.61875 4.49766C4.85625 4.97036 6.15 5.34477 7.48125 5.60218C8.94375 5.88768 10.4578 6.03744 12 6.03744C13.5469 6.03744 15.0562 5.88768 16.5187 5.60218C17.85 5.34009 19.1391 4.97036 20.3812 4.49766ZM17.1375 1.15601C18.7453 1.91888 20.1562 3.02808 21.2766 4.39002C21.3094 4.42278 21.3375 4.4649 21.3562 4.50702C21.4359 4.69891 21.3422 4.91888 21.15 4.99376L21.0094 4.64743L21.15 4.99376C19.7109 5.57878 18.2109 6.03276 16.6687 6.33697C15.1547 6.63183 13.5984 6.78627 12.0047 6.78627C10.4109 6.78627 8.85468 6.63183 7.34062 6.33697C5.80781 6.03744 4.32187 5.58814 2.89218 5.0078C2.84531 4.99376 2.80312 4.97036 2.76093 4.9376C2.60156 4.80655 2.57812 4.57254 2.70937 4.40874C3.82968 3.03744 5.25 1.91888 6.86718 1.15133C8.42343 0.411857 10.1672 0 12.0047 0C13.8422 0 15.5859 0.411857 17.1422 1.15133L17.1375 1.15601Z" fill="#1C1B17"/>
<path d="M12 0.00935364C13.8422 0.00935364 15.4875 1.38533 16.6641 3.6131C17.7984 5.76598 18.5016 8.73322 18.5016 12.0047C18.5016 15.2714 17.7984 18.2387 16.6641 20.3962C15.4922 22.624 13.8422 24 12 24C10.1578 24 8.51251 22.624 7.33594 20.3962C6.20157 18.2434 5.49844 15.2761 5.49844 12.0047C5.49844 8.7379 6.20157 5.77066 7.33594 3.6131C8.50782 1.38533 10.1578 0.00935364 12 0.00935364ZM15.9984 3.95943C14.9531 1.97971 13.5375 0.758184 12 0.758184C10.4578 0.758184 9.04219 1.97971 8.00157 3.95943C6.91876 6.00935 6.25313 8.85491 6.25313 12C6.25313 15.1498 6.92344 17.9906 8.00157 20.0406C9.04688 22.0203 10.4625 23.2418 12 23.2418C13.5422 23.2418 14.9578 22.0203 15.9984 20.0406C17.0813 17.9906 17.7469 15.1451 17.7469 12C17.7469 8.85023 17.0766 6.00935 15.9984 3.95943Z" fill="#1C1B17"/>
<path d="M0.375 11.6256C0.16875 11.6256 0 11.7941 0 12C0 12.2059 0.16875 12.3744 0.375 12.3744H23.625C23.8313 12.3744 24 12.2059 24 12C24 11.7941 23.8313 11.6256 23.625 11.6256H0.375Z" fill="#1C1B17"/>
</svg>